<svg width="255" height="45" viewBox="0 0 255 45" fill="none" xmlns="http://www.w3.org/2000/svg">
<path d="M13.8 30.75C13.8 33.5167 13.3 35.8 12.3 37.6C11.3333 39.4 10.0333 40.8 8.4 41.8C6.8 42.8333 4.88333 43.7167 2.65 44.45L0.45 38.65C1.91667 38.0833 3.01667 37.4333 3.75 36.7C4.48333 35.9667 4.96667 35.1167 5.2 34.15C5.46667 33.1833 5.6 31.95 5.6 30.45V1.35H13.8V30.75ZM25.3691 27.8C26.6025 27.8 27.6525 28.25 28.5191 29.15C29.4191 30.0167 29.8691 31.0667 29.8691 32.3C29.8691 33.5667 29.4191 34.65 28.5191 35.55C27.6525 36.4167 26.6025 36.85 25.3691 36.85C24.1025 36.85 23.0191 36.4167 22.1191 35.55C21.2525 34.65 20.8191 33.5667 20.8191 32.3C20.8191 31.0667 21.2525 30.0167 22.1191 29.15C23.0191 28.25 24.1025 27.8 25.3691 27.8ZM65.4961 0.499998C70.4294 0.499998 74.2628 2.08333 76.9961 5.25C79.7628 8.41667 81.1461 12.8833 81.1461 18.65C81.1461 22.4167 80.5128 25.6667 79.2461 28.4C78.0128 31.1333 76.2128 33.2333 73.8461 34.7C71.5128 36.1333 68.7294 36.85 65.4961 36.85C62.2628 36.85 59.4794 36.1333 57.1461 34.7C54.8128 33.2667 53.0128 31.2 51.7461 28.5C50.5128 25.7667 49.8961 22.4833 49.8961 18.65C49.8961 14.9167 50.5128 11.6833 51.7461 8.95C53.0128 6.21667 54.8128 4.13333 57.1461 2.7C59.4794 1.23333 62.2628 0.499998 65.4961 0.499998ZM65.4961 6.5C63.1294 6.5 61.3628 7.46667 60.1961 9.4C59.0628 11.3 58.4961 14.3833 58.4961 18.65C58.4961 22.9167 59.0794 26.0167 60.2461 27.95C61.4128 29.8833 63.1628 30.85 65.4961 30.85C67.8961 30.85 69.6628 29.9 70.7961 28C71.9628 26.0667 72.5461 22.95 72.5461 18.65C72.5461 14.35 71.9628 11.25 70.7961 9.35C69.6294 7.45 67.8628 6.5 65.4961 6.5ZM96.7664 1.35V29.5H110.266L109.416 36H88.5664V1.35H96.7664ZM124.901 1.35V36H116.701V1.35H124.901ZM168.25 36H160.2L159.6 22.45C159.433 19.2167 159.35 16.3333 159.35 13.8C159.35 11.8667 159.4 10.0333 159.5 8.3L154.15 32.35H146.4L140.7 8.3C140.9 11.2 141 13.9333 141 16.5C141 18.4333 140.95 20.45 140.85 22.55L140.25 36H132.25L134.85 1.35H145.2L150.4 24.85L155.25 1.35H165.65L168.25 36ZM186.856 1.35C191.423 1.35 194.973 2.3 197.506 4.2C200.04 6.1 201.306 8.91666 201.306 12.65C201.306 16.55 200.056 19.5 197.556 21.5C195.09 23.4667 191.773 24.45 187.606 24.45H183.856V36H175.656V1.35H186.856ZM186.906 18.55C188.84 18.55 190.306 18.1 191.306 17.2C192.34 16.2667 192.856 14.75 192.856 12.65C192.856 9.01667 190.823 7.2 186.756 7.2H183.856V18.55H186.906ZM216.337 1.35V36H208.137V1.35H216.337ZM239.285 0.499998C244.218 0.499998 248.052 2.08333 250.785 5.25C253.552 8.41667 254.935 12.8833 254.935 18.65C254.935 22.4167 254.302 25.6667 253.035 28.4C251.802 31.1333 250.002 33.2333 247.635 34.7C245.302 36.1333 242.518 36.85 239.285 36.85C236.052 36.85 233.268 36.1333 230.935 34.7C228.602 33.2667 226.802 31.2 225.535 28.5C224.302 25.7667 223.685 22.4833 223.685 18.65C223.685 14.9167 224.302 11.6833 225.535 8.95C226.802 6.21667 228.602 4.13333 230.935 2.7C233.268 1.23333 236.052 0.499998 239.285 0.499998ZM239.285 6.5C236.918 6.5 235.152 7.46667 233.985 9.4C232.852 11.3 232.285 14.3833 232.285 18.65C232.285 22.9167 232.868 26.0167 234.035 27.95C235.202 29.8833 236.952 30.85 239.285 30.85C241.685 30.85 243.452 29.9 244.585 28C245.752 26.0667 246.335 22.95 246.335 18.65C246.335 14.35 245.752 11.25 244.585 9.35C243.418 7.45 241.652 6.5 239.285 6.5Z" fill="black"/>
</svg>
